# xmcd CD database file
#
# Track frame offsets:
#	150
#	4050
#	7933
#	29728
#	50777
#	79333
#	99933
#	125544
#	144754
#	166565
#	187333
#	216021
#	236779
#	262708
#	281812
#	282513
#	282871
#	283230
#	283592
#	283951
#	284308
#	284670
#	285033
#	285388
#	285747
#	286109
#	287009
#	287704
#	288066
#	288425
#	288784
#	289146
#	289508
#	289867
#	290222
#	290585
#	290943
#	291306
#	292206
#	292995
#	293535
#	294075
#	294614
#	295154
#	295698
#	296237
#	296774
#	297314
#	297857
#	298484
#
# Disc length: 3992 seconds
#
# Revision: 1
# Processed by: cddbd v1.5.2PL0 Copyright (c) Steve Scherf et al.
# Submitted via: CDex 1.91
#
DISCID=940f9632
DTITLE=Play Along - Blues Power Live!
DYEAR=1900
DGENRE=Blues
TTITLE0=B-flat Tuning
TTITLE1=A Tuning
TTITLE2=Midnight at the Chicago's
TTITLE3=Breakfast in Dallas
TTITLE4=L.A.Lunch
TTITLE5=New Orleans Rainy Afternoon
TTITLE6=Blue Hour in Boston
TTITLE7=N.Y. 9 p.m.
TTITLE8=Midnight at the Chicago's (Solo)
TTITLE9=Breakfast in Dallas (Solo)
TTITLE10=L.A.Lunch(Solo)
TTITLE11=New Orleans Rainy Afternoon (Solo)
TTITLE12=Blue Hour in Boston (Solo)
TTITLE13=N.Y. 9 p.m. (Solo)
TTITLE14=Endings 1
TTITLE15=Endings 1
TTITLE16=Endings 1
TTITLE17=Endings 1
TTITLE18=Endings 1
TTITLE19=Endings 1
TTITLE20=Endings 1
TTITLE21=Endings 1
TTITLE22=Endings 1
TTITLE23=Endings 1
TTITLE24=Endings 1
TTITLE25=Endings 1
TTITLE26=Endings 2
TTITLE27=Endings 2
TTITLE28=Endings 2
TTITLE29=Endings 2
TTITLE30=Endings 2
TTITLE31=Endings 2
TTITLE32=Endings 2
TTITLE33=Endings 2
TTITLE34=Endings 2
TTITLE35=Endings 2
TTITLE36=Endings 2
TTITLE37=Endings 2
TTITLE38=Licks
TTITLE39=Licks
TTITLE40=Licks
TTITLE41=Licks
TTITLE42=Licks
TTITLE43=Licks
TTITLE44=Licks
TTITLE45=Licks
TTITLE46=Licks
TTITLE47=Licks
TTITLE48=Licks
TTITLE49=Licks
EXTD=
EXTT0=
EXTT1=
EXTT2=
EXTT3=
EXTT4=
EXTT5=
EXTT6=
EXTT7=
EXTT8=
EXTT9=
EXTT10=
EXTT11=
EXTT12=
EXTT13=
EXTT14=
EXTT15=
EXTT16=
EXTT17=
EXTT18=
EXTT19=
EXTT20=
EXTT21=
EXTT22=
EXTT23=
EXTT24=
EXTT25=
EXTT26=
EXTT27=
EXTT28=
EXTT29=
EXTT30=
EXTT31=
EXTT32=
EXTT33=
EXTT34=
EXTT35=
EXTT36=
EXTT37=
EXTT38=
EXTT39=
EXTT40=
EXTT41=
EXTT42=
EXTT43=
EXTT44=
EXTT45=
EXTT46=
EXTT47=
EXTT48=
EXTT49=
PLAYORDER=
